<mxfile host="app.diagrams.net" modified="2022-03-21T10:16:52.342Z" agent="5.0 (Windows NT 10.0; Win64; x64) AppleWebKit/537.36 (KHTML, like Gecko) Chrome/99.0.4844.51 Safari/537.36 Edg/99.0.1150.39" etag="OWr12_ZqUZEG6138XHAR" version="17.1.3" type="github">
  <diagram id="Tnfxos1idLWcZAXjUXyp" name="Page-1">
    <mxGraphModel dx="1422" dy="754" grid="1" gridSize="10" guides="1" tooltips="1" connect="1" arrows="1" fold="1" page="1" pageScale="1" pageWidth="827" pageHeight="1169" math="0" shadow="0">
      <root>
        <mxCell id="0" />
        <mxCell id="1" parent="0" />
        <mxCell id="-Blnrq4B1XnmZcDvS2HX-2" value="" style="shape=table;startSize=0;container=1;collapsible=0;childLayout=tableLayout;fillColor=#ffe6cc;strokeColor=#d79b00;" vertex="1" parent="1">
          <mxGeometry x="520" y="80" width="160" height="40" as="geometry" />
        </mxCell>
        <mxCell id="-Blnrq4B1XnmZcDvS2HX-3" value="" style="shape=tableRow;horizontal=0;startSize=0;swimlaneHead=0;swimlaneBody=0;top=0;left=0;bottom=0;right=0;collapsible=0;dropTarget=0;fillColor=none;points=[[0,0.5],[1,0.5]];portConstraint=eastwest;" vertex="1" parent="-Blnrq4B1XnmZcDvS2HX-2">
          <mxGeometry width="160" height="40" as="geometry" />
        </mxCell>
        <mxCell id="-Blnrq4B1XnmZcDvS2HX-4" value="1" style="shape=partialRectangle;html=1;whiteSpace=wrap;connectable=0;overflow=hidden;fillColor=none;top=0;left=0;bottom=0;right=0;pointerEvents=1;" vertex="1" parent="-Blnrq4B1XnmZcDvS2HX-3">
          <mxGeometry width="40" height="40" as="geometry">
            <mxRectangle width="40" height="40" as="alternateBounds" />
          </mxGeometry>
        </mxCell>
        <mxCell id="-Blnrq4B1XnmZcDvS2HX-5" value="2" style="shape=partialRectangle;html=1;whiteSpace=wrap;connectable=0;overflow=hidden;fillColor=none;top=0;left=0;bottom=0;right=0;pointerEvents=1;" vertex="1" parent="-Blnrq4B1XnmZcDvS2HX-3">
          <mxGeometry x="40" width="40" height="40" as="geometry">
            <mxRectangle width="40" height="40" as="alternateBounds" />
          </mxGeometry>
        </mxCell>
        <mxCell id="-Blnrq4B1XnmZcDvS2HX-6" value="3" style="shape=partialRectangle;html=1;whiteSpace=wrap;connectable=0;overflow=hidden;fillColor=none;top=0;left=0;bottom=0;right=0;pointerEvents=1;" vertex="1" parent="-Blnrq4B1XnmZcDvS2HX-3">
          <mxGeometry x="80" width="40" height="40" as="geometry">
            <mxRectangle width="40" height="40" as="alternateBounds" />
          </mxGeometry>
        </mxCell>
        <mxCell id="-Blnrq4B1XnmZcDvS2HX-7" value="4" style="shape=partialRectangle;html=1;whiteSpace=wrap;connectable=0;overflow=hidden;fillColor=none;top=0;left=0;bottom=0;right=0;pointerEvents=1;" vertex="1" parent="-Blnrq4B1XnmZcDvS2HX-3">
          <mxGeometry x="120" width="40" height="40" as="geometry">
            <mxRectangle width="40" height="40" as="alternateBounds" />
          </mxGeometry>
        </mxCell>
        <mxCell id="-Blnrq4B1XnmZcDvS2HX-8" value="" style="shape=table;startSize=0;container=1;collapsible=0;childLayout=tableLayout;fillColor=#dae8fc;strokeColor=#6c8ebf;" vertex="1" parent="1">
          <mxGeometry x="360" y="240" width="320" height="40" as="geometry" />
        </mxCell>
        <mxCell id="-Blnrq4B1XnmZcDvS2HX-9" value="" style="shape=tableRow;horizontal=0;startSize=0;swimlaneHead=0;swimlaneBody=0;top=0;left=0;bottom=0;right=0;collapsible=0;dropTarget=0;fillColor=none;points=[[0,0.5],[1,0.5]];portConstraint=eastwest;" vertex="1" parent="-Blnrq4B1XnmZcDvS2HX-8">
          <mxGeometry width="320" height="40" as="geometry" />
        </mxCell>
        <mxCell id="-Blnrq4B1XnmZcDvS2HX-10" value="1" style="shape=partialRectangle;html=1;whiteSpace=wrap;connectable=0;overflow=hidden;fillColor=none;top=0;left=0;bottom=0;right=0;pointerEvents=1;" vertex="1" parent="-Blnrq4B1XnmZcDvS2HX-9">
          <mxGeometry width="40" height="40" as="geometry">
            <mxRectangle width="40" height="40" as="alternateBounds" />
          </mxGeometry>
        </mxCell>
        <mxCell id="-Blnrq4B1XnmZcDvS2HX-11" value="3" style="shape=partialRectangle;html=1;whiteSpace=wrap;connectable=0;overflow=hidden;fillColor=none;top=0;left=0;bottom=0;right=0;pointerEvents=1;" vertex="1" parent="-Blnrq4B1XnmZcDvS2HX-9">
          <mxGeometry x="40" width="40" height="40" as="geometry">
            <mxRectangle width="40" height="40" as="alternateBounds" />
          </mxGeometry>
        </mxCell>
        <mxCell id="-Blnrq4B1XnmZcDvS2HX-12" value="5" style="shape=partialRectangle;html=1;whiteSpace=wrap;connectable=0;overflow=hidden;fillColor=none;top=0;left=0;bottom=0;right=0;pointerEvents=1;" vertex="1" parent="-Blnrq4B1XnmZcDvS2HX-9">
          <mxGeometry x="80" width="40" height="40" as="geometry">
            <mxRectangle width="40" height="40" as="alternateBounds" />
          </mxGeometry>
        </mxCell>
        <mxCell id="-Blnrq4B1XnmZcDvS2HX-13" value="7" style="shape=partialRectangle;html=1;whiteSpace=wrap;connectable=0;overflow=hidden;fillColor=none;top=0;left=0;bottom=0;right=0;pointerEvents=1;" vertex="1" parent="-Blnrq4B1XnmZcDvS2HX-9">
          <mxGeometry x="120" width="40" height="40" as="geometry">
            <mxRectangle width="40" height="40" as="alternateBounds" />
          </mxGeometry>
        </mxCell>
        <mxCell id="-Blnrq4B1XnmZcDvS2HX-14" value="9" style="shape=partialRectangle;html=1;whiteSpace=wrap;connectable=0;overflow=hidden;fillColor=none;top=0;left=0;bottom=0;right=0;pointerEvents=1;" vertex="1" parent="-Blnrq4B1XnmZcDvS2HX-9">
          <mxGeometry x="160" width="40" height="40" as="geometry">
            <mxRectangle width="40" height="40" as="alternateBounds" />
          </mxGeometry>
        </mxCell>
        <mxCell id="-Blnrq4B1XnmZcDvS2HX-15" value="11" style="shape=partialRectangle;html=1;whiteSpace=wrap;connectable=0;overflow=hidden;fillColor=none;top=0;left=0;bottom=0;right=0;pointerEvents=1;" vertex="1" parent="-Blnrq4B1XnmZcDvS2HX-9">
          <mxGeometry x="200" width="40" height="40" as="geometry">
            <mxRectangle width="40" height="40" as="alternateBounds" />
          </mxGeometry>
        </mxCell>
        <mxCell id="-Blnrq4B1XnmZcDvS2HX-16" value="13" style="shape=partialRectangle;html=1;whiteSpace=wrap;connectable=0;overflow=hidden;fillColor=none;top=0;left=0;bottom=0;right=0;pointerEvents=1;" vertex="1" parent="-Blnrq4B1XnmZcDvS2HX-9">
          <mxGeometry x="240" width="40" height="40" as="geometry">
            <mxRectangle width="40" height="40" as="alternateBounds" />
          </mxGeometry>
        </mxCell>
        <mxCell id="-Blnrq4B1XnmZcDvS2HX-17" value="15" style="shape=partialRectangle;html=1;whiteSpace=wrap;connectable=0;overflow=hidden;fillColor=none;top=0;left=0;bottom=0;right=0;pointerEvents=1;" vertex="1" parent="-Blnrq4B1XnmZcDvS2HX-9">
          <mxGeometry x="280" width="40" height="40" as="geometry">
            <mxRectangle width="40" height="40" as="alternateBounds" />
          </mxGeometry>
        </mxCell>
        <mxCell id="-Blnrq4B1XnmZcDvS2HX-18" value="__m128" style="text;html=1;strokeColor=none;fillColor=none;align=center;verticalAlign=middle;whiteSpace=wrap;rounded=0;" vertex="1" parent="1">
          <mxGeometry x="720" y="90" width="60" height="30" as="geometry" />
        </mxCell>
        <mxCell id="-Blnrq4B1XnmZcDvS2HX-19" value="__m256" style="text;html=1;strokeColor=none;fillColor=none;align=center;verticalAlign=middle;whiteSpace=wrap;rounded=0;" vertex="1" parent="1">
          <mxGeometry x="720" y="250" width="60" height="30" as="geometry" />
        </mxCell>
        <mxCell id="-Blnrq4B1XnmZcDvS2HX-20" value="0" style="text;html=1;strokeColor=none;fillColor=none;align=center;verticalAlign=middle;whiteSpace=wrap;rounded=0;" vertex="1" parent="1">
          <mxGeometry x="660" y="60" width="20" height="20" as="geometry" />
        </mxCell>
        <mxCell id="-Blnrq4B1XnmZcDvS2HX-21" value="127" style="text;html=1;strokeColor=none;fillColor=none;align=center;verticalAlign=middle;whiteSpace=wrap;rounded=0;" vertex="1" parent="1">
          <mxGeometry x="520" y="60" width="20" height="20" as="geometry" />
        </mxCell>
        <mxCell id="-Blnrq4B1XnmZcDvS2HX-22" value="255" style="text;html=1;strokeColor=none;fillColor=none;align=center;verticalAlign=middle;whiteSpace=wrap;rounded=0;" vertex="1" parent="1">
          <mxGeometry x="360" y="220" width="20" height="20" as="geometry" />
        </mxCell>
        <mxCell id="-Blnrq4B1XnmZcDvS2HX-23" value="0" style="text;html=1;strokeColor=none;fillColor=none;align=center;verticalAlign=middle;whiteSpace=wrap;rounded=0;" vertex="1" parent="1">
          <mxGeometry x="660" y="220" width="20" height="20" as="geometry" />
        </mxCell>
        <mxCell id="-Blnrq4B1XnmZcDvS2HX-47" value="__m256" style="text;html=1;strokeColor=none;fillColor=none;align=center;verticalAlign=middle;whiteSpace=wrap;rounded=0;" vertex="1" parent="1">
          <mxGeometry x="720" y="410" width="60" height="30" as="geometry" />
        </mxCell>
        <mxCell id="-Blnrq4B1XnmZcDvS2HX-48" value="255" style="text;html=1;strokeColor=none;fillColor=none;align=center;verticalAlign=middle;whiteSpace=wrap;rounded=0;" vertex="1" parent="1">
          <mxGeometry x="360" y="380" width="20" height="20" as="geometry" />
        </mxCell>
        <mxCell id="-Blnrq4B1XnmZcDvS2HX-49" value="0" style="text;html=1;strokeColor=none;fillColor=none;align=center;verticalAlign=middle;whiteSpace=wrap;rounded=0;" vertex="1" parent="1">
          <mxGeometry x="660" y="380" width="20" height="20" as="geometry" />
        </mxCell>
        <mxCell id="-Blnrq4B1XnmZcDvS2HX-50" value="" style="shape=table;startSize=0;container=1;collapsible=0;childLayout=tableLayout;fillColor=#d5e8d4;strokeColor=#82b366;" vertex="1" parent="1">
          <mxGeometry x="40" y="400" width="640" height="40" as="geometry" />
        </mxCell>
        <mxCell id="-Blnrq4B1XnmZcDvS2HX-51" value="" style="shape=tableRow;horizontal=0;startSize=0;swimlaneHead=0;swimlaneBody=0;top=0;left=0;bottom=0;right=0;collapsible=0;dropTarget=0;fillColor=none;points=[[0,0.5],[1,0.5]];portConstraint=eastwest;" vertex="1" parent="-Blnrq4B1XnmZcDvS2HX-50">
          <mxGeometry width="640" height="40" as="geometry" />
        </mxCell>
        <mxCell id="-Blnrq4B1XnmZcDvS2HX-52" value="1" style="shape=partialRectangle;html=1;whiteSpace=wrap;connectable=0;overflow=hidden;fillColor=none;top=0;left=0;bottom=0;right=0;pointerEvents=1;" vertex="1" parent="-Blnrq4B1XnmZcDvS2HX-51">
          <mxGeometry width="40" height="40" as="geometry">
            <mxRectangle width="40" height="40" as="alternateBounds" />
          </mxGeometry>
        </mxCell>
        <mxCell id="-Blnrq4B1XnmZcDvS2HX-53" value="2" style="shape=partialRectangle;html=1;whiteSpace=wrap;connectable=0;overflow=hidden;fillColor=none;top=0;left=0;bottom=0;right=0;pointerEvents=1;" vertex="1" parent="-Blnrq4B1XnmZcDvS2HX-51">
          <mxGeometry x="40" width="40" height="40" as="geometry">
            <mxRectangle width="40" height="40" as="alternateBounds" />
          </mxGeometry>
        </mxCell>
        <mxCell id="-Blnrq4B1XnmZcDvS2HX-54" value="3" style="shape=partialRectangle;html=1;whiteSpace=wrap;connectable=0;overflow=hidden;fillColor=none;top=0;left=0;bottom=0;right=0;pointerEvents=1;" vertex="1" parent="-Blnrq4B1XnmZcDvS2HX-51">
          <mxGeometry x="80" width="40" height="40" as="geometry">
            <mxRectangle width="40" height="40" as="alternateBounds" />
          </mxGeometry>
        </mxCell>
        <mxCell id="-Blnrq4B1XnmZcDvS2HX-55" value="4" style="shape=partialRectangle;html=1;whiteSpace=wrap;connectable=0;overflow=hidden;fillColor=none;top=0;left=0;bottom=0;right=0;pointerEvents=1;" vertex="1" parent="-Blnrq4B1XnmZcDvS2HX-51">
          <mxGeometry x="120" width="40" height="40" as="geometry">
            <mxRectangle width="40" height="40" as="alternateBounds" />
          </mxGeometry>
        </mxCell>
        <mxCell id="-Blnrq4B1XnmZcDvS2HX-56" value="5" style="shape=partialRectangle;html=1;whiteSpace=wrap;connectable=0;overflow=hidden;fillColor=none;top=0;left=0;bottom=0;right=0;pointerEvents=1;" vertex="1" parent="-Blnrq4B1XnmZcDvS2HX-51">
          <mxGeometry x="160" width="40" height="40" as="geometry">
            <mxRectangle width="40" height="40" as="alternateBounds" />
          </mxGeometry>
        </mxCell>
        <mxCell id="-Blnrq4B1XnmZcDvS2HX-57" value="6" style="shape=partialRectangle;html=1;whiteSpace=wrap;connectable=0;overflow=hidden;fillColor=none;top=0;left=0;bottom=0;right=0;pointerEvents=1;" vertex="1" parent="-Blnrq4B1XnmZcDvS2HX-51">
          <mxGeometry x="200" width="40" height="40" as="geometry">
            <mxRectangle width="40" height="40" as="alternateBounds" />
          </mxGeometry>
        </mxCell>
        <mxCell id="-Blnrq4B1XnmZcDvS2HX-58" value="7" style="shape=partialRectangle;html=1;whiteSpace=wrap;connectable=0;overflow=hidden;fillColor=none;top=0;left=0;bottom=0;right=0;pointerEvents=1;" vertex="1" parent="-Blnrq4B1XnmZcDvS2HX-51">
          <mxGeometry x="240" width="40" height="40" as="geometry">
            <mxRectangle width="40" height="40" as="alternateBounds" />
          </mxGeometry>
        </mxCell>
        <mxCell id="-Blnrq4B1XnmZcDvS2HX-59" value="8" style="shape=partialRectangle;html=1;whiteSpace=wrap;connectable=0;overflow=hidden;fillColor=none;top=0;left=0;bottom=0;right=0;pointerEvents=1;" vertex="1" parent="-Blnrq4B1XnmZcDvS2HX-51">
          <mxGeometry x="280" width="40" height="40" as="geometry">
            <mxRectangle width="40" height="40" as="alternateBounds" />
          </mxGeometry>
        </mxCell>
        <mxCell id="-Blnrq4B1XnmZcDvS2HX-60" value="9" style="shape=partialRectangle;html=1;whiteSpace=wrap;connectable=0;overflow=hidden;fillColor=none;top=0;left=0;bottom=0;right=0;pointerEvents=1;" vertex="1" parent="-Blnrq4B1XnmZcDvS2HX-51">
          <mxGeometry x="320" width="40" height="40" as="geometry">
            <mxRectangle width="40" height="40" as="alternateBounds" />
          </mxGeometry>
        </mxCell>
        <mxCell id="-Blnrq4B1XnmZcDvS2HX-61" value="10" style="shape=partialRectangle;html=1;whiteSpace=wrap;connectable=0;overflow=hidden;fillColor=none;top=0;left=0;bottom=0;right=0;pointerEvents=1;" vertex="1" parent="-Blnrq4B1XnmZcDvS2HX-51">
          <mxGeometry x="360" width="40" height="40" as="geometry">
            <mxRectangle width="40" height="40" as="alternateBounds" />
          </mxGeometry>
        </mxCell>
        <mxCell id="-Blnrq4B1XnmZcDvS2HX-62" value="11" style="shape=partialRectangle;html=1;whiteSpace=wrap;connectable=0;overflow=hidden;fillColor=none;top=0;left=0;bottom=0;right=0;pointerEvents=1;" vertex="1" parent="-Blnrq4B1XnmZcDvS2HX-51">
          <mxGeometry x="400" width="40" height="40" as="geometry">
            <mxRectangle width="40" height="40" as="alternateBounds" />
          </mxGeometry>
        </mxCell>
        <mxCell id="-Blnrq4B1XnmZcDvS2HX-63" value="12" style="shape=partialRectangle;html=1;whiteSpace=wrap;connectable=0;overflow=hidden;fillColor=none;top=0;left=0;bottom=0;right=0;pointerEvents=1;" vertex="1" parent="-Blnrq4B1XnmZcDvS2HX-51">
          <mxGeometry x="440" width="40" height="40" as="geometry">
            <mxRectangle width="40" height="40" as="alternateBounds" />
          </mxGeometry>
        </mxCell>
        <mxCell id="-Blnrq4B1XnmZcDvS2HX-64" value="13" style="shape=partialRectangle;html=1;whiteSpace=wrap;connectable=0;overflow=hidden;fillColor=none;top=0;left=0;bottom=0;right=0;pointerEvents=1;" vertex="1" parent="-Blnrq4B1XnmZcDvS2HX-51">
          <mxGeometry x="480" width="40" height="40" as="geometry">
            <mxRectangle width="40" height="40" as="alternateBounds" />
          </mxGeometry>
        </mxCell>
        <mxCell id="-Blnrq4B1XnmZcDvS2HX-65" value="14" style="shape=partialRectangle;html=1;whiteSpace=wrap;connectable=0;overflow=hidden;fillColor=none;top=0;left=0;bottom=0;right=0;pointerEvents=1;" vertex="1" parent="-Blnrq4B1XnmZcDvS2HX-51">
          <mxGeometry x="520" width="40" height="40" as="geometry">
            <mxRectangle width="40" height="40" as="alternateBounds" />
          </mxGeometry>
        </mxCell>
        <mxCell id="-Blnrq4B1XnmZcDvS2HX-66" value="15" style="shape=partialRectangle;html=1;whiteSpace=wrap;connectable=0;overflow=hidden;fillColor=none;top=0;left=0;bottom=0;right=0;pointerEvents=1;" vertex="1" parent="-Blnrq4B1XnmZcDvS2HX-51">
          <mxGeometry x="560" width="40" height="40" as="geometry">
            <mxRectangle width="40" height="40" as="alternateBounds" />
          </mxGeometry>
        </mxCell>
        <mxCell id="-Blnrq4B1XnmZcDvS2HX-67" value="16" style="shape=partialRectangle;html=1;whiteSpace=wrap;connectable=0;overflow=hidden;fillColor=none;top=0;left=0;bottom=0;right=0;pointerEvents=1;" vertex="1" parent="-Blnrq4B1XnmZcDvS2HX-51">
          <mxGeometry x="600" width="40" height="40" as="geometry">
            <mxRectangle width="40" height="40" as="alternateBounds" />
          </mxGeometry>
        </mxCell>
        <mxCell id="-Blnrq4B1XnmZcDvS2HX-69" value="511" style="text;html=1;strokeColor=none;fillColor=none;align=center;verticalAlign=middle;whiteSpace=wrap;rounded=0;" vertex="1" parent="1">
          <mxGeometry x="40" y="380" width="20" height="20" as="geometry" />
        </mxCell>
        <mxCell id="-Blnrq4B1XnmZcDvS2HX-70" value="" style="triangle;whiteSpace=wrap;html=1;rotation=-90;fillColor=#EA6B66;strokeColor=none;" vertex="1" parent="1">
          <mxGeometry x="650" y="120" width="20" height="20" as="geometry" />
        </mxCell>
        <mxCell id="-Blnrq4B1XnmZcDvS2HX-73" value="" style="triangle;whiteSpace=wrap;html=1;rotation=-90;fillColor=#EA6B66;strokeColor=none;" vertex="1" parent="1">
          <mxGeometry x="650" y="280" width="20" height="20" as="geometry" />
        </mxCell>
        <mxCell id="-Blnrq4B1XnmZcDvS2HX-74" value="" style="triangle;whiteSpace=wrap;html=1;rotation=-90;fillColor=#EA6B66;strokeColor=none;" vertex="1" parent="1">
          <mxGeometry x="650" y="440" width="20" height="20" as="geometry" />
        </mxCell>
        <mxCell id="-Blnrq4B1XnmZcDvS2HX-75" value="&lt;font color=&quot;#a680b8&quot;&gt;&lt;b&gt;发生转型后，指针指向的位置&lt;/b&gt;&lt;/font&gt;" style="text;html=1;strokeColor=none;fillColor=none;align=left;verticalAlign=middle;whiteSpace=wrap;rounded=0;" vertex="1" parent="1">
          <mxGeometry x="600" y="140" width="120" height="30" as="geometry" />
        </mxCell>
        <mxCell id="-Blnrq4B1XnmZcDvS2HX-76" value="&lt;font color=&quot;#a680b8&quot;&gt;&lt;b&gt;发生转型后，指针指向的位置&lt;/b&gt;&lt;/font&gt;" style="text;html=1;strokeColor=none;fillColor=none;align=left;verticalAlign=middle;whiteSpace=wrap;rounded=0;" vertex="1" parent="1">
          <mxGeometry x="600" y="300" width="120" height="30" as="geometry" />
        </mxCell>
        <mxCell id="-Blnrq4B1XnmZcDvS2HX-77" value="&lt;font color=&quot;#a680b8&quot;&gt;&lt;b&gt;发生转型后，指针指向的位置&lt;/b&gt;&lt;/font&gt;" style="text;html=1;strokeColor=none;fillColor=none;align=left;verticalAlign=middle;whiteSpace=wrap;rounded=0;" vertex="1" parent="1">
          <mxGeometry x="600" y="470" width="120" height="30" as="geometry" />
        </mxCell>
        <mxCell id="-Blnrq4B1XnmZcDvS2HX-78" value="&lt;font color=&quot;#ffb570&quot;&gt;&lt;i&gt;__m128 val128 = {1.0,2.0,3.0,4.0};&lt;/i&gt;&lt;/font&gt;" style="text;html=1;strokeColor=none;fillColor=none;align=center;verticalAlign=middle;whiteSpace=wrap;rounded=0;" vertex="1" parent="1">
          <mxGeometry x="520" y="30" width="240" height="30" as="geometry" />
        </mxCell>
        <mxCell id="-Blnrq4B1XnmZcDvS2HX-79" value="&lt;font color=&quot;#7ea6e0&quot;&gt;&lt;i&gt;__m128 val128 = _m256_set_ps(1.0, 3.0,5.0,7.0, 9.0, 11.0, 13.0, 15.0);&lt;/i&gt;&lt;/font&gt;" style="text;html=1;strokeColor=none;fillColor=none;align=center;verticalAlign=middle;whiteSpace=wrap;rounded=0;" vertex="1" parent="1">
          <mxGeometry x="360" y="200" width="400" height="30" as="geometry" />
        </mxCell>
        <mxCell id="-Blnrq4B1XnmZcDvS2HX-80" value="&lt;i&gt;&lt;font color=&quot;#67ab9f&quot;&gt;__m128 val128 = _m256_set_ps(1.0, 2.0, 3.0, 4.0, 5.0,6.0, 7.0, 8.0, 9.0, 10.0 11.0, 12.0, 13.0, 14.0, 15.0, 16.0);&lt;/font&gt;&lt;/i&gt;" style="text;html=1;strokeColor=none;fillColor=none;align=center;verticalAlign=middle;whiteSpace=wrap;rounded=0;" vertex="1" parent="1">
          <mxGeometry x="90" y="350" width="670" height="30" as="geometry" />
        </mxCell>
      </root>
    </mxGraphModel>
  </diagram>
</mxfile>
